<svg xmlns="http://www.w3.org/2000/svg" version="1.1" xmlns:xlink="http://www.w3.org/1999/xlink" xmlns:svgjs="http://svgjs.dev/svgjs" width="2000" height="1999" viewBox="0 0 2000 1999"><g transform="matrix(1,0,0,1,-0.431486880466764,-0.4312711370263287)"><svg viewBox="0 0 343 343" data-background-color="#ffffff" preserveAspectRatio="xMidYMid meet" height="1999" width="2000" xmlns="http://www.w3.org/2000/svg" xmlns:xlink="http://www.w3.org/1999/xlink"><g id="tight-bounds" transform="matrix(1,0,0,1,0.0740000000000407,0.07400000000001228)"><svg viewBox="0 0 342.85155851775386 342.85155851775386" height="342.85155851775386" width="342.85155851775386"><g><svg></svg></g><g><svg viewBox="0 0 342.85155851775386 342.85155851775386" height="342.85155851775386" width="342.85155851775386"><g><path d="M0 171.426c0-94.676 76.75-171.426 171.426-171.426 94.676 0 171.426 76.75 171.426 171.426 0 94.676-76.75 171.426-171.426 171.426-94.676 0-171.426-76.75-171.426-171.426zM171.426 338.537c92.293 0 167.111-74.818 167.111-167.111 0-92.293-74.818-167.111-167.111-167.111-92.293 0-167.111 74.818-167.111 167.111 0 92.293 74.818 167.111 167.111 167.111z" data-fill-palette-color="tertiary" fill="#000000" stroke="transparent"></path><ellipse rx="164.56874808852186" ry="164.56874808852186" cx="171.42577925887693" cy="171.42577925887693" fill="#000000" stroke="transparent" stroke-width="0" fill-opacity="1" data-fill-palette-color="tertiary"></ellipse></g><g transform="matrix(1,0,0,1,64.84655864529837,108.79190558038765)"><svg viewBox="0 0 213.1584412271571 125.26774735697856" height="125.26774735697856" width="213.1584412271571"><g><svg viewBox="0 0 213.1584412271571 125.26774735697856" height="125.26774735697856" width="213.1584412271571"><g transform="matrix(1,0,0,1,0,77.42049335939463)"><svg viewBox="0 0 213.1584412271571 47.847253997583934" height="47.847253997583934" width="213.1584412271571"><g id="textblocktransform"><svg viewBox="0 0 213.1584412271571 47.847253997583934" height="47.847253997583934" width="213.1584412271571" id="textblock"><g><svg viewBox="0 0 213.1584412271571 47.847253997583934" height="47.847253997583934" width="213.1584412271571"><g transform="matrix(1,0,0,1,0,0)"><svg width="213.1584412271571" viewBox="3 -39.65 226.56203504939225 50.5" height="47.847253997583934" data-palette-color="#ffe2b7"><g transform="matrix(1,0,0,1,0,0)"><g><svg width="4.71679065587015" viewBox="3.16 -36.36 28.68 36.36" height="5.981416262057007" data-palette-color="#ffe2b7" id="scriptelement" x="221.35846972145714" y="-8.835878131028503"><path d="M10.85 0L3.16 0 3.16-36.36 17.51-36.36Q21.63-36.36 24.55-34.9 27.47-33.43 29-30.76 30.54-28.09 30.54-24.49L30.54-24.49Q30.54-20.86 28.98-18.26 27.41-15.66 24.46-14.28 21.5-12.89 17.31-12.89L17.31-12.89 7.71-12.89 7.71-19.07 16.07-19.07Q18.27-19.07 19.73-19.67 21.18-20.28 21.9-21.48 22.62-22.69 22.62-24.49L22.62-24.49Q22.62-26.3 21.9-27.54 21.18-28.78 19.72-29.43 18.25-30.08 16.03-30.08L16.03-30.08 10.85-30.08 10.85 0ZM14.51-16.55L22.8-16.55 31.84 0 23.35 0 14.51-16.55Z" opacity="1" transform="matrix(1,0,0,1,0,0)" fill="#ffe2b7" class="undefined-123" data-fill-palette-color="quaternary" id="yy-123"></path></svg></g></g><path d="M217.872-5.845C217.872-9.073 220.489-11.69 223.717-11.69 226.945-11.69 229.562-9.073 229.562-5.845 229.562-2.617 226.945 0 223.717 0 220.489 0 217.872-2.617 217.872-5.845ZM223.717-0.553C226.64-0.553 229.009-2.922 229.009-5.845 229.009-8.768 226.64-11.138 223.717-11.138 220.794-11.138 218.424-8.768 218.424-5.845 218.424-2.922 220.794-0.553 223.717-0.553Z" fill="#ffe2b7" id="scriptcircle" data-fill-palette-color="quaternary"></path><path d="M10.7-34.55Q15.05-34.55 18.23-33.23 21.4-31.9 23.38-28.13 25.35-24.35 25.35-17.45L25.35-17.45Q25.35-7.7 21.48-3.85 17.6 0 11.35 0L11.35 0 3 0 3-34.55 10.7-34.55ZM11.65-29.8L9.35-29.8 9.35-4.75 11.7-4.75Q13.95-4.75 15.48-5.8 17-6.85 17.88-9.65 18.75-12.45 18.75-17.45L18.75-17.45Q18.75-22.55 17.82-25.25 16.9-27.95 15.38-28.88 13.85-29.8 11.65-29.8L11.65-29.8ZM29.95-26.45L36.1-26.45 36.1 0 29.95 0 29.95-26.45ZM33-39.65Q34.65-39.65 35.67-38.6 36.7-37.55 36.7-35.9L36.7-35.9Q36.7-34.3 35.67-33.25 34.65-32.2 33-32.2L33-32.2Q31.35-32.2 30.32-33.25 29.3-34.3 29.3-35.9L29.3-35.9Q29.3-37.55 30.32-38.6 31.35-39.65 33-39.65L33-39.65ZM59.75-29.85L61.3-25.1Q60.25-24.6 58.77-24.4 57.3-24.2 55.1-24.2L55.1-24.2Q57.2-23.2 58.22-21.53 59.25-19.85 59.25-17.4L59.25-17.4Q59.25-13.4 56.8-10.95 54.35-8.5 50.15-8.5L50.15-8.5Q48.9-8.5 47.6-8.9L47.6-8.9Q46.7-8.15 46.7-6.85L46.7-6.85Q46.7-5.85 47.25-5.35 47.8-4.85 49.3-4.85L49.3-4.85 52.1-4.85Q56.1-4.85 58.45-2.78 60.8-0.7 60.8 2.5L60.8 2.5Q60.8 6.3 57.87 8.58 54.95 10.85 49.55 10.85L49.55 10.85Q43.85 10.85 41.57 8.75 39.3 6.65 39.3 2.6L39.3 2.6 44.75 2.6Q44.75 4.75 45.75 5.65 46.75 6.55 49.6 6.55L49.6 6.55Q52.35 6.55 53.5 5.6 54.65 4.65 54.65 2.9L54.65 2.9Q54.65 1.2 53.7 0.4 52.75-0.4 50.75-0.4L50.75-0.4 48.85-0.4Q45.05-0.4 43.3-1.75 41.55-3.1 41.55-5.45L41.55-5.45Q41.55-6.8 42.27-8.03 43-9.25 44.25-10.2L44.25-10.2Q42.2-11.5 41.25-13.3 40.3-15.1 40.3-17.7L40.3-17.7Q40.3-22.05 42.9-24.58 45.5-27.1 49.9-27.1L49.9-27.1Q53.15-27.1 55.27-27.8 57.4-28.5 59.75-29.85L59.75-29.85ZM49.9-23Q48.15-23 47.25-21.75 46.35-20.5 46.35-17.8L46.35-17.8Q46.35-15.25 47.25-13.88 48.15-12.5 49.85-12.5L49.85-12.5Q51.6-12.5 52.45-13.73 53.3-14.95 53.3-17.85L53.3-17.85Q53.3-20.55 52.47-21.78 51.65-23 49.9-23L49.9-23ZM64.04-26.45L70.19-26.45 70.19 0 64.04 0 64.04-26.45ZM67.09-39.65Q68.74-39.65 69.77-38.6 70.79-37.55 70.79-35.9L70.79-35.9Q70.79-34.3 69.77-33.25 68.74-32.2 67.09-32.2L67.09-32.2Q65.44-32.2 64.42-33.25 63.39-34.3 63.39-35.9L63.39-35.9Q63.39-37.55 64.42-38.6 65.44-39.65 67.09-39.65L67.09-39.65ZM87.04-5L89.19-1.2Q86.74 0.75 83.44 0.75L83.44 0.75Q79.99 0.75 78.19-1.23 76.39-3.2 76.39-6.6L76.39-6.6 76.39-22 73.29-22 73.29-26.45 76.39-26.45 76.39-32.3 82.54-33.05 82.54-26.45 87.54-26.45 86.94-22 82.54-22 82.54-6.6Q82.54-4.2 84.59-4.2L84.59-4.2Q85.24-4.2 85.74-4.38 86.24-4.55 87.04-5L87.04-5ZM108.64-6.4Q108.64-5.1 108.99-4.48 109.34-3.85 110.14-3.45L110.14-3.45 108.89 0.65Q106.84 0.4 105.61-0.45 104.39-1.3 103.79-3.05L103.79-3.05Q101.49 0.75 97.34 0.75L97.34 0.75Q94.04 0.75 92.09-1.48 90.14-3.7 90.14-7.4L90.14-7.4Q90.14-11.7 92.81-13.95 95.49-16.2 100.59-16.2L100.59-16.2 102.64-16.2 102.64-18.05Q102.64-20.55 101.76-21.58 100.89-22.6 98.94-22.6L98.94-22.6Q96.59-22.6 93.09-21.3L93.09-21.3 91.69-25.3Q93.69-26.2 95.84-26.68 97.99-27.15 99.94-27.15L99.94-27.15Q108.64-27.15 108.64-18.35L108.64-18.35 108.64-6.4ZM98.99-3.7Q101.39-3.7 102.64-7L102.64-7 102.64-12.55 101.19-12.55Q98.64-12.55 97.46-11.4 96.29-10.25 96.29-7.85L96.29-7.85Q96.29-5.8 96.99-4.75 97.69-3.7 98.99-3.7L98.99-3.7ZM120.04 0.75Q117.34 0.75 115.76-0.93 114.19-2.6 114.19-5.4L114.19-5.4 114.19-37.05 120.34-37.7 120.34-5.65Q120.34-5 120.64-4.6 120.94-4.2 121.54-4.2L121.54-4.2Q121.89-4.2 122.21-4.3 122.54-4.4 122.64-4.4L122.64-4.4 123.84-0.2Q122.14 0.75 120.04 0.75L120.04 0.75ZM151.78-34.55L158.03-34.55 150.03 0 142.08 0 133.78-34.55 140.23-34.55 146.13-5.6 151.78-34.55ZM160.78-26.45L166.93-26.45 166.93 0 160.78 0 160.78-26.45ZM163.83-39.65Q165.48-39.65 166.5-38.6 167.53-37.55 167.53-35.9L167.53-35.9Q167.53-34.3 166.5-33.25 165.48-32.2 163.83-32.2L163.83-32.2Q162.18-32.2 161.15-33.25 160.13-34.3 160.13-35.9L160.13-35.9Q160.13-37.55 161.15-38.6 162.18-39.65 163.83-39.65L163.83-39.65ZM184.78-27.15Q188.63-27.15 190.68-23.65 192.73-20.15 192.73-13.25L192.73-13.25Q192.73-6.75 190.43-3 188.13 0.75 184.13 0.75L184.13 0.75Q182.38 0.75 180.93-0.13 179.48-1 178.43-2.55L178.43-2.55 178.08 0 172.63 0 172.63-37 178.78-37.65 178.78-23.6Q179.83-25.3 181.35-26.23 182.88-27.15 184.78-27.15L184.78-27.15ZM182.48-3.9Q184.33-3.9 185.35-6 186.38-8.1 186.38-13.25L186.38-13.25Q186.38-18.6 185.45-20.58 184.53-22.55 182.83-22.55L182.83-22.55Q181.68-22.55 180.63-21.6 179.58-20.65 178.78-19.1L178.78-19.1 178.78-6.7Q179.43-5.45 180.4-4.67 181.38-3.9 182.48-3.9L182.48-3.9ZM216.17-13.85Q216.17-13.4 216.02-11.3L216.02-11.3 202.37-11.3Q202.57-7.2 203.8-5.58 205.02-3.95 207.27-3.95L207.27-3.95Q208.82-3.95 210.07-4.48 211.32-5 212.77-6.15L212.77-6.15 215.32-2.65Q211.82 0.75 206.92 0.75L206.92 0.75Q201.72 0.75 198.95-2.85 196.17-6.45 196.17-13L196.17-13Q196.17-19.55 198.82-23.35 201.47-27.15 206.32-27.15L206.32-27.15Q210.97-27.15 213.57-23.78 216.17-20.4 216.17-13.85L216.17-13.85ZM210.17-15.3L210.17-15.65Q210.17-19.4 209.27-21.13 208.37-22.85 206.37-22.85L206.37-22.85Q204.52-22.85 203.55-21.18 202.57-19.5 202.37-15.3L202.37-15.3 210.17-15.3Z" opacity="1" transform="matrix(1,0,0,1,0,0)" fill="#ffe2b7" class="wordmark-text-0" data-fill-palette-color="quaternary" id="text-0"></path></svg></g></svg></g></svg></g></svg></g><g transform="matrix(1,0,0,1,65.31184229422331,0)"><svg viewBox="0 0 82.53475663871048 66.124905024661" height="66.124905024661" width="82.53475663871048"><g><svg xmlns="http://www.w3.org/2000/svg" xmlns:xlink="http://www.w3.org/1999/xlink" version="1.1" x="0" y="0" viewBox="2 12.8 84.99999999999999 68.10000000000001" enable-background="new 0 0 90 90" xml:space="preserve" height="66.124905024661" width="82.53475663871048" class="icon-icon-0" data-fill-palette-color="quaternary" id="icon-0"><g fill="#ffe2b7" data-fill-palette-color="quaternary"><path d="M29 28.9c0.2 0.2 0.4 0.3 0.6 0.3 0.2 0 0.5-0.1 0.6-0.3l3.8-3.8-3.8-3.8c-0.4-0.4-0.9-0.4-1.3 0-0.4 0.4-0.4 0.9 0 1.3l2.5 2.5L29 27.6C28.7 28 28.7 28.6 29 28.9z" fill="#ffe2b7" data-fill-palette-color="quaternary"></path><path d="M35.3 28.1c-0.5 0-0.9 0.4-0.9 0.9 0 0.5 0.4 0.9 0.9 0.9h4.8c0.5 0 0.9-0.4 0.9-0.9 0-0.5-0.4-0.9-0.9-0.9H35.3z" fill="#ffe2b7" data-fill-palette-color="quaternary"></path><path d="M74.2 31.6c0.8-0.2 1.8-0.3 2.7-0.3 1.4 0 2.6 0.3 3.1 0.7 1.4 1.1 2 2.1 2.1 2.1l0.3 0.5 0.2-0.1V55c0 1.5-0.5 2.9-1.4 4l0.6 2.4c1.8-1.6 2.9-3.8 2.9-6.4v-21l2.3-0.6-0.8-1c-0.1-0.1-0.6-0.9-1.5-1.9v-9.2c0-4.7-3.8-8.5-8.5-8.5H29.8c-4.7 0-8.5 3.8-8.5 8.5V35c-0.8 0.2-1.5 0.5-2.3 0.8l-2.2-3.5L12.1 35l1.9 3.6c-1.4 1.1-2.6 2.3-3.7 3.7l-3.6-1.9L4 45.1l3.5 2.2c-0.7 1.7-1.1 3.4-1.4 5.1L2 52.5V58l4.1 0.1c0.2 1.7 0.7 3.5 1.4 5.1L4 65.4l2.7 4.7 3.6-1.9c1.1 1.4 2.3 2.6 3.7 3.7l-1.9 3.6 4.7 2.7 2.2-3.5c1.7 0.7 3.4 1.1 5.1 1.4l0.1 4.1h5.5l0.1-4.1c1.7-0.2 3.5-0.7 5.1-1.4l2.2 3.5 4.7-2.7L40 71.9c1.4-1.1 2.6-2.3 3.7-3.7l3.6 1.9 2.7-4.7-3-1.9h22.9l-0.5-2.1H29.8c-3.5 0-6.4-2.9-6.4-6.4V21.3c0-3.5 2.9-6.4 6.4-6.4h46.4c3.5 0 6.4 2.9 6.4 6.4v6.9c-0.6-0.6-1.2-1.2-1.8-1.6C78.7 25 75.6 24 72.7 24c-1 0-1.9 0.1-2.7 0.3l-11.5 2.9L56.7 26l-5.6 1.4L54.3 40l5.6-1.4 1-1.9 3.9-1 11 45.2 9.1-2.3L72.8 33.3 74.2 31.6zM11.5 59.1c-1-3.9-0.5-8.1 1.7-11.8 1.9-3.3 4.8-5.6 8.1-6.9v10.4c-0.2 0.3-0.4 0.6-0.6 0.9-0.7 1.2-1 2.4-1 3.7 0 1.5-0.8 2.9-2.1 3.7l-2.7 1.6C13.6 61.3 11.9 60.6 11.5 59.1zM38.2 63.5c0.8 0.9 0.9 2.3-0.1 3.2-5 4.8-12.8 6-19.1 2.3-1.1-0.7-2.2-1.4-3.1-2.3-1.1-1.1-0.9-2.9 0.4-3.7l2.7-1.6c1.3-0.8 2.9-0.7 4.2 0 0 0 0 0 0 0 0.7 0.4 1.5 0.7 2.2 0.8 1.2 0.7 2.7 1.1 4.2 1.1H38.2zM59.7 35.2l-1 1.9-3.2 0.8-2.3-9.2 3.2-0.8 1.8 1.2L70.4 26c0.7-0.2 1.5-0.3 2.3-0.3 2.5 0 5.3 0.9 7 2.3 1.5 1.2 3.3 3.3 4.3 4.5l-0.9 0.2c-0.4-0.5-1.1-1.3-2.1-2.1-1.1-0.9-2.9-1.1-4.2-1.1-1.2 0-2.4 0.1-3.4 0.4L73.2 30l-1.7 2.2L59.7 35.2z" fill="#ffe2b7" data-fill-palette-color="quaternary"></path><rect x="56.6" y="31.6" transform="matrix(-0.2466 -0.9691 0.9691 -0.2466 42.9199 97.4263)" width="5.5" height="0.9" fill="#ffe2b7" data-fill-palette-color="quaternary"></rect></g></svg></g></svg></g><g></g></svg></g></svg></g></svg></g><defs></defs></svg><rect width="342.85155851775386" height="342.85155851775386" fill="none" stroke="none" visibility="hidden"></rect></g></svg></g></svg>